# xmcd
#
# Track frame offsets:
#	150
#	27217
#	43668
#	65817
#	83075
#	106156
#	133411
#	170858
#	195098
#	206836
#	249833
#
# Disc length: 3712 seconds
#
# Revision: 1
# Processed by: cddbd v1.5.1PL2 Copyright (c) Steve Scherf et al.
# Submitted via: EasyCDDAExtractor 9.0.0.1
#
DISCID=980e7e0b
DTITLE=Dio - Arrow Classic Festival Lichtenvoorde 09-06-06
DYEAR=2006
DGENRE=Hard Rock
TTITLE0=Children Of The Grave
TTITLE1=Stand Up And Shout
TTITLE2=Holy Diver
TTITLE3=Gypsy Queen
TTITLE4=Drum Solo
TTITLE5=I
TTITLE6=All The Fools Sailed Away
TTITLE7=Rainbow In The Dark
TTITLE8=Guitar and Keyboard Solo
TTITLE9=Heaven and Hell
TTITLE10=We Rock
EXTD=
EXTT0=
EXTT1=
EXTT2=
EXTT3=
EXTT4=
EXTT5=
EXTT6=
EXTT7=
EXTT8=
EXTT9=
EXTT10=
PLAYORDER=
